#define 0ea558d43c0f4a39ce9967841c9b62b81nGqhjtJxv0MVOPt_width 32
#define 0ea558d43c0f4a39ce9967841c9b62b81nGqhjtJxv0MVOPt_height 32
static char 0ea558d43c0f4a39ce9967841c9b62b81nGqhjtJxv0MVOPt_bits[] = {
  0x00, 0x00, 0x00, 0x00, 0x06, 0x00, 0x00, 0x00, 0x0E, 0x00, 0x00, 0x00, 
  0x1A, 0x00, 0x00, 0x00, 0x24, 0x00, 0x00, 0x00, 0xE4, 0x00, 0x00, 0x00, 
  0x88, 0x01, 0x00, 0x00, 0x08, 0x03, 0x00, 0x00, 0x10, 0x0C, 0x00, 0x00, 
  0x10, 0x38, 0x00, 0x00, 0xA0, 0xF3, 0x00, 0x00, 0x20, 0x07, 0x87, 0x03, 
  0x20, 0x0F, 0xF8, 0x06, 0x20, 0x3F, 0x00, 0x06, 0x40, 0xFF, 0x00, 0x06, 
  0x40, 0xC6, 0xD1, 0x0F, 0x40, 0x86, 0xF8, 0x0F, 0x40, 0x8E, 0xF8, 0x03, 
  0x40, 0x9C, 0x7C, 0x02, 0x40, 0x74, 0xE1, 0x00, 0x40, 0xC0, 0x83, 0x00, 
  0x40, 0xC0, 0xE5, 0x00, 0x40, 0x9C, 0xF7, 0x01, 0x40, 0x3C, 0xF2, 0x00, 
  0x40, 0x3E, 0xE0, 0x00, 0x70, 0xBE, 0x63, 0x00, 0x10, 0xDF, 0xCF, 0x01, 
  0x60, 0xFF, 0xDF, 0x00, 0xC0, 0x87, 0xB9, 0x01, 0x80, 0x03, 0x70, 0x01, 
  0x00, 0x00, 0xC0, 0x03, 0x00, 0x00, 0x00, 0x03, };
