#define c8f306a1893347dbb8c762c865fe6b85NaQFYottrlCSPzWz_width 32
#define c8f306a1893347dbb8c762c865fe6b85NaQFYottrlCSPzWz_height 32
static char c8f306a1893347dbb8c762c865fe6b85NaQFYottrlCSPzWz_bits[] = {
  0x00, 0x00, 0x00, 0x00, 0x00, 0x00, 0x00, 0x00, 0x06, 0x00, 0x00, 0x00, 
  0x0C, 0x00, 0x00, 0x00, 0x3C, 0x00, 0x00, 0x00, 0x78, 0x00, 0x00, 0x00, 
  0xF8, 0x00, 0x00, 0x00, 0xF0, 0x01, 0x00, 0x00, 0xF0, 0x07, 0x00, 0x00, 
  0xE0, 0x1F, 0x00, 0x00, 0xE0, 0x7F, 0x00, 0x00, 0xE0, 0xFD, 0x01, 0x01, 
  0xC0, 0xF9, 0x9F, 0x03, 0xC0, 0xE1, 0xFF, 0x03, 0xC0, 0x81, 0xFF, 0x03, 
  0xC0, 0x03, 0xFF, 0x00, 0xC0, 0x03, 0x1F, 0x00, 0xC0, 0x83, 0x0F, 0x00, 
  0x80, 0x03, 0x0F, 0x00, 0x80, 0x3F, 0x7F, 0x00, 0x80, 0x7F, 0x7E, 0x00, 
  0x80, 0x7F, 0x3C, 0x00, 0x80, 0xFF, 0x1C, 0x00, 0x80, 0xE7, 0x1F, 0x00, 
  0xC0, 0xE3, 0x3F, 0x00, 0xE0, 0xE3, 0x3F, 0x00, 0xF0, 0x61, 0x7C, 0x00, 
  0xE0, 0x00, 0x70, 0x00, 0x00, 0x00, 0xE0, 0x00, 0x00, 0x00, 0xC0, 0x01, 
  0x00, 0x00, 0x80, 0x01, 0x00, 0x00, 0x00, 0x00, };
